<svg width="231" height="60" viewBox="0 0 231 60" fill="none" xmlns="http://www.w3.org/2000/svg">
<g filter="url(#filter0_d_10_885)">
<path d="M17.168 37.576C12.688 37.576 9.36 36.072 7.184 33.064C5.04 30.024 3.968 25.752 3.968 20.248C3.968 14.744 5.04 10.488 7.184 7.48C9.36 4.44 12.688 2.92 17.168 2.92C18.896 2.92 20.416 3.16 21.728 3.64C23.072 4.088 24.224 4.728 25.184 5.56C26.144 6.392 26.928 7.4 27.536 8.584C28.176 9.768 28.672 11.096 29.024 12.568L22.304 14.2C22.112 13.4 21.888 12.664 21.632 11.992C21.376 11.32 21.04 10.744 20.624 10.264C20.24 9.784 19.744 9.416 19.136 9.16C18.56 8.872 17.856 8.728 17.024 8.728C15.072 8.728 13.68 9.496 12.848 11.032C12.048 12.536 11.648 14.632 11.648 17.32V23.176C11.648 25.864 12.048 27.976 12.848 29.512C13.68 31.016 15.072 31.768 17.024 31.768C18.688 31.768 19.888 31.256 20.624 30.232C21.392 29.208 21.952 27.896 22.304 26.296L29.024 27.928C28.672 29.4 28.176 30.728 27.536 31.912C26.928 33.096 26.144 34.12 25.184 34.984C24.224 35.816 23.072 36.456 21.728 36.904C20.416 37.352 18.896 37.576 17.168 37.576ZM50.5573 9.064C48.9573 9.064 47.8373 8.744 47.1973 8.104C46.5893 7.432 46.2853 6.632 46.2853 5.704V4.312C46.2853 3.352 46.5893 2.552 47.1973 1.912C47.8373 1.272 48.9573 0.951998 50.5573 0.951998C52.1573 0.951998 53.2613 1.272 53.8693 1.912C54.5093 2.552 54.8293 3.352 54.8293 4.312V5.704C54.8293 6.632 54.5093 7.432 53.8693 8.104C53.2613 8.744 52.1573 9.064 50.5573 9.064ZM39.1333 31.48H47.0053V17.752H39.1333V12.232H54.1093V31.48H61.4053V37H39.1333V31.48ZM70.3625 37V12.232H77.4665V16.744H77.7545C78.0425 16.04 78.3945 15.384 78.8105 14.776C79.2265 14.168 79.7225 13.64 80.2985 13.192C80.9065 12.712 81.5945 12.344 82.3625 12.088C83.1625 11.8 84.0585 11.656 85.0505 11.656C86.2345 11.656 87.3225 11.864 88.3145 12.28C89.3065 12.664 90.1545 13.256 90.8585 14.056C91.5625 14.856 92.1065 15.832 92.4905 16.984C92.9065 18.136 93.1145 19.464 93.1145 20.968V37H86.0105V21.928C86.0105 18.728 84.6185 17.128 81.8345 17.128C81.2905 17.128 80.7465 17.208 80.2025 17.368C79.6905 17.496 79.2265 17.72 78.8105 18.04C78.3945 18.328 78.0585 18.696 77.8025 19.144C77.5785 19.592 77.4665 20.12 77.4665 20.728V37H70.3625ZM114.936 37.576C110.776 37.576 107.624 36.424 105.48 34.12C103.336 31.816 102.264 28.68 102.264 24.712C102.264 22.696 102.536 20.888 103.08 19.288C103.656 17.656 104.456 16.28 105.48 15.16C106.536 14.008 107.8 13.144 109.272 12.568C110.776 11.96 112.456 11.656 114.312 11.656C116.168 11.656 117.832 11.96 119.304 12.568C120.776 13.144 122.024 13.976 123.048 15.064C124.072 16.152 124.856 17.48 125.4 19.048C125.976 20.584 126.264 22.312 126.264 24.232V26.344H109.32V26.776C109.32 28.376 109.816 29.672 110.808 30.664C111.8 31.624 113.256 32.104 115.176 32.104C116.648 32.104 117.912 31.832 118.968 31.288C120.024 30.712 120.936 29.96 121.704 29.032L125.544 33.208C124.584 34.392 123.24 35.416 121.512 36.28C119.784 37.144 117.592 37.576 114.936 37.576ZM114.36 16.744C112.824 16.744 111.592 17.224 110.664 18.184C109.768 19.112 109.32 20.376 109.32 21.976V22.36H119.304V21.976C119.304 20.344 118.856 19.064 117.96 18.136C117.096 17.208 115.896 16.744 114.36 16.744ZM136.901 37V3.496H144.149V31.096H158.549V37H136.901ZM181.042 9.064C179.442 9.064 178.322 8.744 177.682 8.104C177.074 7.432 176.77 6.632 176.77 5.704V4.312C176.77 3.352 177.074 2.552 177.682 1.912C178.322 1.272 179.442 0.951998 181.042 0.951998C182.642 0.951998 183.746 1.272 184.354 1.912C184.994 2.552 185.314 3.352 185.314 4.312V5.704C185.314 6.632 184.994 7.432 184.354 8.104C183.746 8.744 182.642 9.064 181.042 9.064ZM169.618 31.48H177.49V17.752H169.618V12.232H184.594V31.48H191.89V37H169.618V31.48ZM214.047 37C211.487 37 209.583 36.328 208.335 34.984C207.087 33.64 206.463 31.928 206.463 29.848V17.752H199.743V12.232H204.111C205.167 12.232 205.919 12.024 206.367 11.608C206.815 11.192 207.039 10.424 207.039 9.304V3.496H213.567V12.232H223.215V17.752H213.567V31.48H223.215V37H214.047Z" fill="#402115"/>
<path d="M10.88 51.04C10.88 53.4921 8.89215 55.48 6.44 55.48C3.98786 55.48 2 53.4921 2 51.04C2 48.5879 3.98786 46.6 6.44 46.6C8.89215 46.6 10.88 48.5879 10.88 51.04ZM28.64 51.04C28.64 53.4921 26.6521 55.48 24.2 55.48C21.7479 55.48 19.76 53.4921 19.76 51.04C19.76 48.5879 21.7479 46.6 24.2 46.6C26.6521 46.6 28.64 48.5879 28.64 51.04ZM46.4 51.04C46.4 53.4921 44.4121 55.48 41.96 55.48C39.5079 55.48 37.52 53.4921 37.52 51.04C37.52 48.5879 39.5079 46.6 41.96 46.6C44.4121 46.6 46.4 48.5879 46.4 51.04ZM64.16 51.04C64.16 53.4921 62.1722 55.48 59.72 55.48C57.2679 55.48 55.28 53.4921 55.28 51.04C55.28 48.5879 57.2679 46.6 59.72 46.6C62.1722 46.6 64.16 48.5879 64.16 51.04ZM81.92 51.04C81.92 53.4921 79.9322 55.48 77.48 55.48C75.0279 55.48 73.04 53.4921 73.04 51.04C73.04 48.5879 75.0279 46.6 77.48 46.6C79.9322 46.6 81.92 48.5879 81.92 51.04ZM99.68 51.04C99.68 53.4921 97.6922 55.48 95.24 55.48C92.7879 55.48 90.8 53.4921 90.8 51.04C90.8 48.5879 92.7879 46.6 95.24 46.6C97.6922 46.6 99.68 48.5879 99.68 51.04ZM117.44 51.04C117.44 53.4921 115.452 55.48 113 55.48C110.548 55.48 108.56 53.4921 108.56 51.04C108.56 48.5879 110.548 46.6 113 46.6C115.452 46.6 117.44 48.5879 117.44 51.04ZM135.2 51.04C135.2 53.4921 133.212 55.48 130.76 55.48C128.308 55.48 126.32 53.4921 126.32 51.04C126.32 48.5879 128.308 46.6 130.76 46.6C133.212 46.6 135.2 48.5879 135.2 51.04ZM152.96 51.04C152.96 53.4921 150.972 55.48 148.52 55.48C146.068 55.48 144.08 53.4921 144.08 51.04C144.08 48.5879 146.068 46.6 148.52 46.6C150.972 46.6 152.96 48.5879 152.96 51.04ZM170.72 51.04C170.72 53.4921 168.732 55.48 166.28 55.48C163.828 55.48 161.84 53.4921 161.84 51.04C161.84 48.5879 163.828 46.6 166.28 46.6C168.732 46.6 170.72 48.5879 170.72 51.04ZM188.48 51.04C188.48 53.4921 186.492 55.48 184.04 55.48C181.588 55.48 179.6 53.4921 179.6 51.04C179.6 48.5879 181.588 46.6 184.04 46.6C186.492 46.6 188.48 48.5879 188.48 51.04ZM206.24 51.04C206.24 53.4921 204.252 55.48 201.8 55.48C199.348 55.48 197.36 53.4921 197.36 51.04C197.36 48.5879 199.348 46.6 201.8 46.6C204.252 46.6 206.24 48.5879 206.24 51.04ZM224 51.04C224 53.4921 222.012 55.48 219.56 55.48C217.108 55.48 215.12 53.4921 215.12 51.04C215.12 48.5879 217.108 46.6 219.56 46.6C222.012 46.6 224 48.5879 224 51.04Z" fill="#402115"/>
</g>
<defs>
<filter id="filter0_d_10_885" x="0.5" y="0.452026" width="229.528" height="59.528" filterUnits="userSpaceOnUse" color-interpolation-filters="sRGB">
<feFlood flood-opacity="0" result="BackgroundImageFix"/>
<feColorMatrix in="SourceAlpha" type="matrix" values="0 0 0 0 0 0 0 0 0 0 0 0 0 0 0 0 0 0 127 0" result="hardAlpha"/>
<feOffset dx="1" dy="2"/>
<feGaussianBlur stdDeviation="1.25"/>
<feComposite in2="hardAlpha" operator="out"/>
<feColorMatrix type="matrix" values="0 0 0 0 0.156666 0 0 0 0 0.0833118 0 0 0 0 0.054311 0 0 0 1 0"/>
<feBlend mode="normal" in2="BackgroundImageFix" result="effect1_dropShadow_10_885"/>
<feBlend mode="normal" in="SourceGraphic" in2="effect1_dropShadow_10_885" result="shape"/>
</filter>
</defs>
</svg>
