<svg width="64" height="64" viewBox="0 0 64 64" fill="none" xmlns="http://www.w3.org/2000/svg">
<path fill-rule="evenodd" clip-rule="evenodd" d="M40.7384 40.7375C42.7649 38.7107 44.1449 36.1285 44.7039 33.3175C45.2629 30.5064 44.9758 27.5927 43.8789 24.9448C42.782 22.2969 40.9245 20.0337 38.5414 18.4414C36.1583 16.8491 33.3565 15.9993 30.4904 15.9993C27.6242 15.9993 24.8225 16.8491 22.4393 18.4414C20.0562 20.0337 18.1988 22.2969 17.1019 24.9448C16.0049 27.5927 15.7178 30.5064 16.2768 33.3175C16.8358 36.1285 18.2159 38.7107 20.2424 40.7375C22.9625 43.4514 26.648 44.9755 30.4904 44.9755C34.3328 44.9755 38.0183 43.4514 40.7384 40.7375ZM41.7525 43.8725C38.399 46.687 34.1132 48.1439 29.7392 47.9563C25.3651 47.7687 21.2199 45.9502 18.1196 42.859C11.3034 36.0386 11.3034 24.9427 18.1196 18.123C24.9418 11.3032 36.0388 11.3032 42.861 18.123C49.3177 24.585 49.6602 34.8875 43.8753 41.7518L50.5618 48.44C50.8431 48.7215 51.0011 49.1032 51.001 49.5012C51.0009 49.8992 50.8427 50.2808 50.5612 50.5621C50.2797 50.8435 49.8979 51.0014 49.5 51.0013C49.102 51.0012 48.7204 50.843 48.439 50.5615L41.7525 43.8725ZM31.9998 0C49.6478 0 64 14.3554 64 32C64 49.6446 49.648 64 31.9998 64C14.3516 64 0 49.6452 0 32C0 14.3547 14.3518 0 31.9998 0Z" fill="#416341"/>
</svg>
